<?xml version="1.0" standalone="no"?>
<!DOCTYPE svg PUBLIC "-//W3C//DTD SVG 20010904//EN"
 "http://www.w3.org/TR/2001/REC-SVG-20010904/DTD/svg10.dtd">
<svg version="1.0" xmlns="http://www.w3.org/2000/svg"
 width="2413.000000pt" height="2413.000000pt" viewBox="0 0 2413.000000 2413.000000"
 preserveAspectRatio="xMidYMid meet">
<metadata>
Created by potrace 1.11, written by Peter Selinger 2001-2013
</metadata>
<g transform="translate(0.000000,2413.000000) scale(0.100000,-0.100000)"
fill="#000000" stroke="none">
<path d="M11960 23166 c-82 -18 -139 -39 -215 -78 -64 -33 -3538 -1928 -3543
-1933 -2 -2 401 -704 895 -1560 568 -985 917 -1580 951 -1621 68 -83 146 -144
254 -199 171 -86 38 -80 1813 -80 1476 0 1574 1 1640 18 155 39 321 145 417
265 53 66 1831 3137 1832 3165 1 14 -390 231 -1684 938 -2000 1093 -1906 1042
-2000 1069 -97 27 -270 35 -360 16z"/>
<path d="M5315 19579 c-957 -522 -1764 -964 -1793 -982 -109 -65 -233 -209
-287 -332 -76 -171 -81 -262 -49 -962 l7 -153 -963 0 -963 0 -65 -36 c-329
-180 -650 -487 -853 -815 -138 -222 -247 -493 -299 -739 -46 -222 -44 -118
-48 -2380 -2 -1499 0 -2169 8 -2275 36 -487 209 -915 518 -1286 247 -294 605
-555 954 -693 l66 -26 1889 0 1888 0 147 -293 c335 -665 698 -1305 1091 -1921
270 -424 555 -842 567 -829 10 11 1738 3007 1746 3027 6 14 119 16 1231 18
l1225 3 192 480 191 480 440 0 440 0 191 -480 192 -480 1181 -3 c824 -1 1181
-5 1181 -13 0 -12 1726 -3007 1744 -3027 10 -10 50 43 188 245 555 815 1012
1592 1464 2486 l155 307 2049 0 2050 0 57 37 c605 384 1004 1032 1073 1743 8
82 10 739 8 2290 l-4 2175 -22 115 c-12 63 -36 166 -53 228 -196 737 -761
1343 -1484 1589 -227 77 -179 73 -900 73 l-646 0 6 68 c9 108 25 535 25 679 0
79 -6 160 -15 203 -40 191 -152 362 -310 475 -57 40 -3564 1960 -3569 1953
-20 -28 -1793 -3110 -1815 -3153 -16 -33 -37 -92 -47 -130 -9 -39 -18 -76 -20
-82 -3 -10 -645 -13 -3169 -13 l-3165 0 0 23 c0 12 -15 65 -33 117 -27 80
-177 346 -936 1660 -497 861 -906 1568 -910 1572 -3 4 -789 -420 -1746 -943z
m9025 -3434 c1787 -3 4931 -29 6148 -51 l352 -6 1 -372 2 -371 18 115 c17 112
17 66 13 -1910 -6 -2072 -10 -2377 -39 -2560 -81 -509 -441 -979 -917 -1199
-174 -81 -390 -134 -590 -148 -97 -6 -97 -6 -91 17 l6 22 -1914 -7 c-1588 -6
-1917 -10 -1929 -21 -13 -11 -151 -14 -770 -14 l-753 -1 -29 28 c-32 33 -112
215 -97 223 10 7 -726 1875 -921 2335 -93 220 -209 461 -265 550 -55 89 -136
168 -200 197 -43 19 -65 22 -160 21 -205 -3 -336 -44 -413 -127 -90 -98 -256
-482 -863 -1995 -281 -702 -395 -997 -387 -1002 16 -10 -67 -206 -93 -219 -22
-12 -1626 -14 -1631 -2 -1 5 -831 15 -1843 21 -1012 7 -1877 15 -1923 18 l-83
5 7 -27 7 -27 -64 6 c-243 25 -409 71 -604 168 -428 213 -738 597 -859 1065
-23 88 -44 248 -50 383 -9 190 -15 3927 -6 3895 4 -16 5 201 2 482 l-5 513
2584 3 c2375 2 4015 1 8359 -8z"/>
<path d="M16300 15150 c-171 -19 -446 -125 -629 -244 -162 -105 -329 -268
-444 -433 -28 -40 -55 -73 -59 -73 -11 0 -94 -169 -134 -272 -47 -120 -90
-301 -106 -444 -20 -184 -17 -1139 5 -1444 27 -367 70 -619 104 -613 7 2 15
-7 19 -20 15 -51 108 -224 163 -305 116 -168 255 -307 423 -423 85 -58 246
-144 320 -170 20 -7 35 -16 32 -20 -5 -9 106 -44 205 -64 377 -78 830 -11
1146 171 218 125 441 340 578 555 19 30 74 129 122 218 l87 163 -5 1071 c-5
1078 -7 1149 -42 1292 -39 155 -198 415 -353 577 -148 154 -271 245 -485 358
-153 80 -236 107 -382 119 -131 12 -461 12 -565 1z m122 -571 c104 -21 174
-48 188 -74 7 -13 40 -40 72 -61 181 -111 305 -273 353 -464 9 -36 24 -73 33
-84 25 -27 21 -215 -7 -321 -132 -496 -686 -748 -1144 -519 -80 40 -137 80
-137 95 0 5 -22 32 -50 59 -129 130 -204 306 -217 510 -4 67 -11 106 -25 131
-20 36 -20 36 1 120 76 307 311 536 621 605 70 15 243 17 312 3z"/>
<path d="M7470 15099 c-110 -13 -199 -42 -345 -115 -346 -172 -604 -437 -786
-808 -82 -169 -106 -259 -116 -446 -5 -74 -8 -540 -8 -1035 l0 -900 98 -199
c109 -223 189 -350 301 -479 218 -249 523 -432 831 -499 95 -21 534 -17 655 5
216 40 500 164 674 294 253 189 474 492 567 776 82 252 93 397 85 1172 -9 804
-23 1044 -72 1192 -63 193 -206 399 -425 614 -220 215 -527 373 -823 424 -98
17 -501 19 -636 4z m269 -525 c281 -69 515 -300 587 -578 25 -96 35 -237 23
-323 -63 -454 -495 -768 -948 -689 -327 57 -588 309 -657 635 -15 74 -18 161
-5 161 4 0 11 30 15 68 18 175 87 325 215 464 157 171 355 261 571 257 70 -1
105 2 108 10 5 14 13 14 91 -5z"/>
<path d="M10507 8554 c-204 -37 -401 -167 -513 -339 -55 -86 -2014 -3485
-2014 -3496 0 -11 100 -136 309 -384 883 -1048 1880 -2028 2951 -2900 519
-423 604 -469 870 -469 217 0 334 47 565 228 1050 821 2070 1787 2972 2814
142 163 510 600 567 674 l28 37 -833 1443 c-1208 2094 -1187 2058 -1240 2123
-120 147 -300 247 -495 275 -50 6 -581 10 -1582 9 -1253 -1 -1520 -3 -1585
-15z"/>
</g>
</svg>
