<?xml version="1.0" encoding="utf-8"?>
<!-- Generator: Adobe Illustrator 19.1.0, SVG Export Plug-In . SVG Version: 6.00 Build 0)  -->
<svg version="1.1" id="Layer_1" xmlns="http://www.w3.org/2000/svg" xmlns:xlink="http://www.w3.org/1999/xlink" x="0px" y="0px"
	 viewBox="36 0 288 324" style="enable-background:new 36 0 288 324;" xml:space="preserve">
<style type="text/css">
	.st0{fill:#636363;}
</style>
<g>
	<path class="st0" d="M241.7,286.5H118.3c-18.8,0-34.1-15.3-34.1-34.1V170c0-18.8,15.3-34.1,34.1-34.1h123.4
		c18.8,0,34.1,15.3,34.1,34.1v82.5C275.8,271.2,260.5,286.5,241.7,286.5z M118.3,152.9c-9.4,0-17,7.6-17,17v82.5c0,9.4,7.6,17,17,17
		h123.4c9.4,0,17-7.6,17-17V170c0-9.4-7.6-17-17-17H118.3z"/>
	<path class="st0" d="M129.9,143.3c-4.7,0-8.5-3.8-8.5-8.5V80.5c0-24.1,18.3-43.8,40.9-43.8h35.4c22.6,0,40.9,19.6,40.9,43.8v19.1
		c0,4.7-3.8,8.5-8.5,8.5s-8.5-3.8-8.5-8.5V80.5c0-14.7-10.7-26.7-23.9-26.7h-35.4c-13.2,0-23.9,12-23.9,26.7v54.3
		C138.5,139.5,134.6,143.3,129.9,143.3z"/>
	<path class="st0" d="M180,243.2c-4.7,0-8.5-3.8-8.5-8.5v-47c0-4.7,3.8-8.5,8.5-8.5s8.5,3.8,8.5,8.5v47
		C188.5,239.4,184.7,243.2,180,243.2z"/>
</g>
</svg>
